<?xml version="1.0" standalone="no"?>
<!DOCTYPE svg PUBLIC "-//W3C//DTD SVG 20010904//EN"
 "http://www.w3.org/TR/2001/REC-SVG-20010904/DTD/svg10.dtd">
<svg version="1.0" xmlns="http://www.w3.org/2000/svg"
 width="500.000000pt" height="500.000000pt" viewBox="0 0 500.000000 500.000000"
 preserveAspectRatio="xMidYMid meet">

<g transform="translate(0.000000,500.000000) scale(0.100000,-0.100000)"
fill="#000000" stroke="none">
<path d="M1257 4993 l-1247 -3 0 -2059 0 -2060 28 15 c35 18 38 18 88 -6 25
-13 60 -44 89 -81 25 -32 64 -68 85 -79 49 -25 48 -25 43 3 -3 13 -18 31 -34
41 -16 9 -47 43 -68 75 -72 106 -128 139 -184 109 -20 -10 -21 -10 -8 5 18 23
78 22 118 -3 18 -10 53 -51 79 -90 40 -61 68 -90 88 -90 3 0 6 20 6 44 0 108
57 293 107 348 27 30 30 21 16 -45 -8 -34 -16 -115 -20 -181 l-6 -118 22 11
c12 7 30 11 39 9 9 -2 25 7 36 20 14 18 25 22 43 17 17 -4 32 0 44 11 11 10
27 14 42 10 22 -5 25 -1 35 46 15 62 69 178 84 178 6 0 8 -9 4 -22 -3 -13 -9
-66 -12 -118 -7 -99 -8 -94 41 -177 1 -2 39 13 86 33 285 120 449 146 579 92
l35 -15 1 96 c0 76 6 113 28 178 41 126 49 117 41 -44 -4 -77 -4 -154 0 -173
l7 -33 30 32 c19 20 38 31 57 31 16 0 34 7 41 15 15 18 51 20 68 3 8 -8 15 -8
26 2 9 7 26 10 39 6 23 -5 25 0 57 115 20 69 37 116 42 111 5 -5 8 -68 6 -140
l-3 -130 40 -7 c22 -3 82 -19 134 -36 93 -30 214 -40 266 -24 20 6 20 6 0 -7
-38 -25 -169 -15 -279 21 -129 42 -158 36 -35 -7 52 -18 78 -31 58 -27 -20 3
-64 17 -98 30 -33 14 -67 25 -76 25 -27 0 -16 -17 18 -28 l32 -10 -35 1 c-24
2 -35 -3 -38 -14 -2 -14 10 -17 70 -21 52 -4 91 -14 133 -34 51 -24 72 -29
145 -29 47 0 101 3 120 7 33 7 33 6 -5 -7 -22 -7 -74 -14 -115 -14 l-75 -1 54
-48 c30 -26 73 -59 95 -74 23 -16 36 -28 30 -28 -17 0 -94 54 -159 110 -75 65
-144 98 -223 106 -67 7 -67 8 -52 -30 8 -21 16 -26 45 -26 54 0 93 -21 180
-100 75 -67 145 -112 205 -131 20 -6 21 -7 5 -8 -49 -2 -163 68 -260 160 -43
41 -100 69 -140 69 -25 0 -25 -1 -25 -85 0 -79 -15 -221 -27 -255 -7 -21 -19
11 -53 144 l-28 110 -58 2 c-33 0 -61 2 -64 4 -3 1 -15 1 -27 1 -12 -1 -28 7
-37 20 -8 13 -17 21 -19 18 -9 -9 -38 -139 -48 -219 -7 -47 -15 -89 -19 -93
-17 -19 -33 66 -36 193 l-4 135 -68 0 c-59 -1 -81 -7 -184 -53 -147 -66 -233
-85 -357 -79 l-93 4 6 -36 c20 -123 18 -341 -3 -341 -7 0 -24 61 -83 285 -8
32 -12 36 -19 22 -11 -20 -40 -22 -57 -5 -9 9 -16 7 -31 -6 -13 -12 -29 -16
-43 -13 -13 4 -29 0 -39 -9 -25 -23 -52 -13 -70 25 l-15 33 -27 -139 c-15 -76
-30 -162 -34 -190 -3 -29 -9 -53 -13 -53 -17 0 -40 157 -40 276 0 115 -9 161
-35 192 -2 2 -18 -7 -35 -20 -44 -32 -146 -32 -208 0 -56 30 -53 36 6 11 59
-26 137 -27 182 -4 31 16 32 18 14 28 -10 6 -51 12 -89 13 -45 0 -84 8 -108
19 -52 24 -39 31 22 10 27 -9 66 -15 86 -13 l36 3 -63 67 c-68 72 -101 87
-148 68 l-30 -12 0 -423 0 -422 1868 -6 c1027 -4 2149 -7 2495 -7 l627 0 0
2500 0 2500 -1247 -2 c-687 -2 -1809 -4 -2496 -5z m3733 -324 l0 -320 -22 15
c-12 9 -31 16 -41 16 -37 0 -97 -41 -141 -98 -25 -32 -64 -68 -86 -81 l-40
-22 0 23 c0 15 10 29 30 40 16 9 44 38 62 65 57 83 111 133 146 133 17 0 34
-4 37 -10 3 -5 11 -10 16 -10 17 0 -1 21 -26 30 -53 20 -113 -17 -170 -106
-34 -52 -72 -94 -87 -94 -4 0 -8 25 -8 56 0 68 -25 183 -55 249 -26 58 -71
120 -78 108 -3 -4 1 -37 9 -73 7 -36 17 -116 20 -179 l7 -114 -26 18 c-14 9
-31 14 -37 10 -6 -4 -22 3 -35 15 -17 16 -31 21 -47 17 -13 -4 -29 0 -39 9
-10 9 -28 14 -41 12 -20 -3 -25 3 -36 46 -16 64 -60 162 -80 178 -13 11 -15 8
-9 -27 17 -111 20 -215 6 -231 -8 -9 -18 -27 -24 -40 l-10 -22 -120 50 c-190
78 -275 101 -385 101 -73 1 -107 -4 -146 -19 l-51 -21 5 71 c4 77 -15 178 -48
253 -30 67 -43 56 -33 -29 10 -90 10 -244 1 -254 -4 -4 -21 8 -38 26 -23 25
-36 31 -54 26 -15 -4 -28 0 -36 9 -15 18 -51 20 -68 3 -9 -9 -15 -9 -24 0 -7
7 -24 12 -39 12 -24 0 -28 6 -44 63 -40 146 -47 167 -56 162 -5 -4 -9 -67 -9
-141 l0 -134 -25 0 c-14 0 -67 -14 -118 -31 -103 -35 -227 -48 -292 -31 -35
10 -38 10 -21 -3 49 -37 164 -32 307 14 53 17 100 31 105 31 13 -1 -53 -30
-116 -51 -33 -11 -46 -18 -32 -18 13 -1 57 13 99 29 79 32 103 36 103 20 0 -5
-8 -10 -18 -10 -10 0 -27 -7 -38 -15 -17 -13 -16 -14 15 -5 26 7 37 6 43 -3
14 -22 9 -24 -65 -29 -50 -3 -91 -13 -137 -34 -68 -30 -150 -38 -250 -22 l-45
7 40 -16 c22 -8 72 -16 112 -17 39 0 71 -2 70 -2 -1 -1 -29 -25 -62 -54 -67
-58 -100 -77 -165 -97 l-45 -13 44 5 c58 8 120 42 206 115 92 79 144 103 227
108 63 4 66 3 61 -16 -3 -15 -17 -22 -51 -27 -64 -9 -85 -22 -175 -103 -85
-76 -154 -118 -226 -138 -25 -6 -39 -13 -30 -13 29 -2 122 30 163 56 23 14 77
57 120 94 73 64 121 89 169 89 16 0 17 -6 12 -45 -8 -47 23 -305 36 -305 9 0
47 125 73 240 5 24 8 25 86 25 65 -1 84 3 97 17 9 10 20 18 24 18 9 0 34 -107
50 -220 7 -47 16 -89 20 -94 15 -18 31 73 36 208 l5 139 67 -5 c46 -4 87 -15
136 -38 181 -84 266 -105 407 -99 l87 4 -7 -45 c-9 -60 -9 -316 1 -326 12 -12
18 1 43 103 50 199 52 204 74 191 16 -10 24 -10 40 0 17 10 23 9 40 -8 17 -17
24 -18 41 -9 16 8 24 7 38 -5 26 -24 49 -19 69 14 l19 30 21 -113 c12 -61 27
-145 34 -184 7 -40 15 -73 19 -73 18 0 42 152 44 275 1 72 8 144 15 162 l11
32 47 -25 c58 -32 133 -30 205 5 62 30 53 40 -12 12 -60 -25 -139 -27 -184 -5
l-32 17 25 10 c14 6 54 11 90 11 40 1 80 9 105 20 52 24 30 32 -30 12 -48 -17
-105 -21 -105 -8 0 4 26 35 58 69 62 67 96 82 142 63 l30 -12 0 -2164 0 -2164
-1245 0 -1245 0 0 2490 0 2490 1245 0 1245 0 0 -321z m-4524 -143 l27 -139 19
36 c21 42 49 48 71 16 13 -18 18 -19 35 -8 18 11 24 10 42 -6 16 -14 23 -16
32 -7 16 16 34 15 52 -3 17 -17 13 -28 67 183 18 67 36 122 40 122 21 0 23
-218 3 -340 l-6 -35 124 -1 c135 -1 187 -14 354 -88 85 -38 168 -58 201 -50
19 5 21 16 26 137 5 133 20 212 38 202 5 -4 9 -21 9 -38 0 -37 46 -266 54
-275 4 -3 14 4 22 17 9 13 25 21 37 20 12 -1 30 1 39 5 9 4 25 3 36 -3 11 -6
23 -7 27 -3 4 4 16 7 28 7 17 0 23 10 34 60 22 96 53 195 62 195 11 0 33 -181
32 -267 l-1 -73 30 0 c49 0 90 23 174 99 77 69 152 114 211 126 17 4 5 -4 -26
-18 -68 -29 -104 -54 -188 -130 -76 -69 -101 -83 -164 -92 -26 -4 -47 -11 -47
-15 0 -5 -3 -16 -7 -26 -6 -16 0 -17 60 -11 82 8 139 36 232 114 85 70 130 99
170 108 22 5 18 1 -18 -17 -26 -13 -76 -48 -112 -78 l-64 -55 87 -6 c48 -3 96
-11 107 -17 17 -10 14 -10 -15 -4 -19 4 -69 7 -110 7 -61 0 -87 -5 -140 -29
-46 -21 -86 -31 -137 -34 -65 -4 -73 -7 -73 -25 0 -17 5 -19 38 -14 25 5 32 3
22 -3 -8 -5 -23 -10 -32 -10 -10 0 -18 -4 -18 -10 0 -16 33 -11 98 15 34 14
67 25 74 24 7 0 -18 -13 -57 -29 -90 -37 -65 -38 51 -1 117 37 196 46 254 28
44 -13 43 -13 -45 -9 -82 3 -101 0 -203 -32 -63 -20 -126 -36 -140 -36 l-27 0
3 -131 c2 -73 -1 -136 -6 -141 -6 -6 -22 38 -43 110 -31 111 -34 118 -56 114
-13 -2 -30 1 -38 8 -12 10 -19 10 -27 2 -16 -16 -54 -15 -71 2 -8 9 -24 12
-36 9 -16 -4 -30 4 -55 32 l-34 37 -7 -33 c-4 -17 -5 -98 -1 -178 l6 -146 -24
50 c-36 77 -60 197 -53 270 l6 63 -52 -21 c-41 -17 -72 -21 -147 -20 -110 1
-197 24 -385 101 l-120 50 -24 -42 c-22 -38 -23 -48 -17 -141 3 -55 9 -111 13
-124 4 -18 3 -22 -6 -16 -19 11 -69 121 -82 180 -11 48 -13 51 -38 47 -16 -2
-32 2 -40 12 -9 10 -22 13 -42 9 -24 -4 -33 -1 -46 16 -9 14 -21 20 -30 16 -9
-3 -26 2 -39 10 l-24 15 0 -77 c0 -43 7 -118 15 -168 22 -133 20 -138 -20 -80
-46 64 -85 188 -92 293 -3 45 -9 82 -13 82 -10 0 -65 -61 -97 -110 -39 -58
-63 -78 -102 -90 -33 -9 -91 4 -91 21 0 6 8 5 19 -1 41 -21 75 -12 117 33 23
23 55 62 73 87 17 26 44 54 60 63 16 9 31 28 33 42 3 14 3 25 0 25 -22 0 -90
-54 -130 -105 -68 -84 -133 -114 -177 -81 -18 13 -14 13 29 9 l48 -6 64 68
c35 37 64 72 64 76 0 14 -60 10 -105 -6 -57 -21 -77 -17 -30 6 26 12 63 19
105 19 36 0 76 7 89 14 l25 14 -32 16 c-43 22 -127 20 -181 -4 -24 -11 -46
-18 -49 -15 -3 2 17 15 44 27 66 29 149 29 199 -1 21 -12 39 -21 40 -19 26 31
35 77 35 186 0 117 12 211 32 261 11 24 12 23 20 -29 4 -30 20 -118 34 -194z
m3002 -51 c-2 -50 -10 -101 -18 -115 l-13 -25 -13 31 c-11 26 -10 38 3 75 14
42 13 128 -3 244 -2 16 8 -4 22 -45 22 -64 25 -88 22 -165z m-344 -27 c60
-210 64 -238 42 -238 -23 0 -63 60 -80 120 -26 92 -48 346 -27 325 5 -6 34
-99 65 -207z m1461 110 c13 -29 32 -82 41 -118 19 -74 23 -241 7 -280 l-11
-25 -7 30 c-4 17 -13 50 -20 75 -8 25 -18 108 -24 185 -6 77 -13 150 -17 163
-12 40 7 23 31 -30z m-304 -118 c25 -79 39 -332 20 -368 -12 -23 -35 -20 -47
6 -10 24 -12 455 -2 440 4 -7 18 -42 29 -78z m-1083 6 c30 -62 64 -181 60
-208 -2 -17 -10 -23 -27 -23 -22 0 -27 10 -62 135 -28 95 -35 136 -27 141 19
12 36 -1 56 -45z m91 16 c5 -10 18 -56 27 -103 15 -74 16 -88 3 -114 -21 -43
-42 -39 -46 10 -2 33 -30 130 -58 196 -3 10 1 23 10 33 19 18 48 8 64 -22z
m67 -9 c37 -37 66 -122 71 -206 3 -60 2 -78 -6 -67 -8 11 -10 -5 -9 -60 1 -63
2 -69 8 -35 7 37 7 36 8 -20 0 -33 -3 -69 -8 -80 -7 -17 -9 -16 -9 10 -1 32
-19 119 -70 333 -17 73 -31 135 -31 138 0 11 30 2 46 -13z m447 -49 c91 -20
377 -133 377 -148 0 -22 -17 -36 -49 -40 -24 -3 -53 8 -118 44 -133 75 -237
105 -358 104 -77 0 -112 -5 -152 -21 l-51 -20 10 23 c10 21 71 54 123 67 44
10 150 6 218 -9z m578 -66 c7 -13 15 -74 17 -135 4 -95 2 -117 -13 -139 -17
-26 -18 -26 -35 -8 -15 16 -19 42 -23 162 l-4 142 23 0 c14 0 28 -9 35 -22z
m-491 -128 c41 -10 67 -19 58 -19 -26 -1 -147 26 -197 44 -24 8 -46 13 -48 11
-7 -7 146 -53 197 -60 25 -3 92 -2 150 2 58 5 107 7 109 6 2 -2 1 -14 -3 -27
-5 -22 -12 -25 -68 -29 -138 -11 -233 11 -418 93 -79 35 -106 42 -162 43 -43
1 -68 5 -68 12 0 11 76 48 115 56 11 2 74 -22 140 -54 66 -32 154 -67 195 -78z
m-100 124 c63 -15 226 -87 265 -117 19 -15 16 -15 -40 -11 -91 9 -200 40 -302
89 -51 24 -93 46 -93 49 0 12 106 5 170 -10z m694 -137 c5 -83 3 -114 -8 -142
-8 -19 -19 -35 -24 -35 -26 0 -34 35 -37 172 -3 155 4 177 41 134 17 -19 22
-42 28 -129z m-2259 72 c-33 -33 -69 -65 -80 -70 -11 -6 13 22 52 60 89 87
110 95 28 10z m880 -143 c-9 -44 -22 -94 -29 -111 -12 -28 -13 -25 -26 68 -12
91 -9 191 6 230 4 12 14 -1 36 -44 l31 -61 -18 -82z m1086 -182 c-23 -85 -40
-136 -41 -119 -7 148 14 323 52 440 l23 70 3 -121 c2 -113 0 -130 -37 -270z
m359 336 c16 -17 34 -53 41 -82 16 -62 18 -343 3 -403 -9 -37 -11 -30 -42 125
-43 225 -46 247 -27 186 23 -68 27 -53 10 30 -8 38 -16 87 -17 109 -1 30 -3
24 -8 -25 l-7 -65 -1 78 c-2 87 5 93 48 47z m-2383 -186 c-3 -3 -12 -4 -19 -1
-8 3 -5 6 6 6 11 1 17 -2 13 -5z m-1420 -859 c7 -42 13 -53 47 -75 39 -27 65
-63 65 -90 0 -8 -6 0 -14 17 -8 18 -29 42 -47 52 -27 17 -35 18 -48 7 -8 -7
-26 -19 -40 -25 -22 -11 -21 -8 8 18 25 24 30 35 23 49 -5 9 -12 44 -16 77 -4
33 -10 64 -13 69 -5 10 -59 -79 -79 -133 l-14 -36 5 35 c2 19 7 42 10 50 3 8
-7 30 -23 50 l-29 35 -10 -35 c-10 -34 -10 -34 -11 -6 -1 23 14 43 77 105 l77
76 12 -95 c7 -52 16 -117 20 -145z m-180 -32 c-3 -10 -5 -4 -5 12 0 17 2 24 5
18 2 -7 2 -21 0 -30z m10 -45 c-3 -8 -6 -5 -6 6 -1 11 2 17 5 13 3 -3 4 -12 1
-19z m-17 -152 c6 -6 10 -19 10 -30 0 -12 -15 8 -35 47 -19 38 -35 78 -35 90
1 13 11 -2 26 -38 13 -33 29 -64 34 -69z m-118 70 l-30 -35 20 -41 c11 -22 28
-45 38 -50 10 -5 28 -26 40 -46 l22 -35 12 23 c18 36 59 52 102 38 41 -14 42
-13 53 27 8 28 7 30 -12 25 -14 -3 -18 -1 -13 6 4 7 12 12 18 12 5 0 24 12 41
26 23 19 37 24 56 19 30 -7 58 -31 73 -60 6 -11 -3 -5 -19 13 -22 22 -40 32
-61 32 -36 0 -47 -12 -62 -70 -7 -25 -16 -53 -22 -63 -9 -17 -11 -17 -26 -4
-56 50 -121 15 -129 -68 -9 -101 -5 -100 -83 -21 l-70 71 -1 -50 c0 -27 -5
-59 -10 -70 -6 -13 -8 25 -6 110 3 140 12 173 64 221 37 35 40 29 5 -10z m228
19 c-7 -8 -19 -15 -26 -15 -8 0 -14 -6 -14 -12 0 -17 -48 -116 -49 -102 -1 6
6 28 14 47 8 20 15 48 15 62 0 15 4 24 10 20 5 -3 18 -1 27 4 26 15 37 13 23
-4z m1185 -115 c-3 -5 -20 -10 -36 -10 -17 0 -43 -7 -59 -15 -52 -27 -60 -49
-60 -162 0 -57 3 -103 8 -103 10 0 80 47 111 74 18 16 25 18 28 8 3 -7 19 -32
37 -55 78 -104 102 -176 93 -275 -10 -100 -52 -179 -150 -279 -88 -92 -194
-179 -204 -169 -4 4 34 45 85 91 118 110 143 159 150 288 9 178 -55 323 -134
303 l-24 -6 0 -191 c0 -166 2 -190 16 -196 9 -3 25 -1 36 6 41 25 30 -1 -23
-57 -30 -31 -55 -58 -56 -60 -1 -3 -21 11 -45 31 -24 19 -54 40 -66 47 l-24
12 22 23 c21 22 21 28 18 281 -3 259 -3 259 -30 318 -31 66 -32 66 -19 66 6 0
20 -18 33 -39 l24 -39 42 43 c23 24 61 50 84 58 49 18 153 22 143 7z m-1200
-10 c-3 -5 -15 -10 -26 -10 -11 0 -17 5 -14 10 3 6 15 10 26 10 11 0 17 -4 14
-10z m268 -77 c-7 -2 -19 -2 -25 0 -7 3 -2 5 12 5 14 0 19 -2 13 -5z m97 -12
c15 -30 12 -47 -14 -77 -22 -26 -22 -30 -10 -60 17 -40 7 -71 -33 -108 l-28
-26 47 0 c38 0 50 -5 67 -26 30 -39 26 -51 -5 -15 -23 28 -32 31 -80 31 -35 0
-69 7 -94 20 -52 27 -66 25 -107 -10 -18 -16 -44 -30 -56 -30 -19 1 -18 3 8
14 17 7 41 25 54 40 29 31 64 33 109 6 44 -27 56 -25 86 11 31 36 34 79 7 103
-18 16 -18 18 10 46 33 32 38 74 12 89 -17 10 -17 10 -1 11 10 0 22 -9 28 -19z
m-255 -71 c3 -6 -1 -7 -9 -4 -18 7 -21 14 -7 14 6 0 13 -4 16 -10z m-57 -42
c-3 -8 -18 -12 -41 -10 -45 4 -92 -22 -108 -60 -9 -23 -8 -45 6 -113 l18 -85
-30 -57 c-16 -32 -45 -87 -63 -122 -18 -35 -41 -93 -51 -130 l-18 -66 6 55 c7
73 25 119 78 210 56 97 60 115 41 200 -19 81 -13 116 23 148 31 27 61 36 101
30 17 -3 30 -1 30 4 0 4 3 8 6 8 3 0 4 -6 2 -12z m1631 -20 c6 -18 29 -59 50
-90 44 -66 66 -140 59 -203 -7 -59 -63 -133 -142 -190 -34 -24 -68 -55 -75
-69 l-13 -24 -53 42 c-28 24 -77 53 -108 66 -56 23 -57 24 -37 42 23 22 22 15
24 217 l1 155 65 12 c64 12 160 44 190 64 23 15 28 12 39 -22z m-1620 -50 c-7
-13 -30 -49 -52 -80 -33 -48 -40 -68 -47 -127 -5 -49 -16 -85 -36 -118 -15
-26 -34 -59 -41 -73 -7 -14 -13 -19 -13 -12 0 7 16 43 36 81 25 48 37 86 41
130 4 42 13 73 29 94 13 18 37 53 55 80 34 50 47 62 28 25z m-222 -54 c-3 -3
-12 -4 -19 -1 -8 3 -5 6 6 6 11 1 17 -2 13 -5z m-72 -23 c-22 -10 -53 -33 -70
-50 -28 -30 -30 -38 -30 -104 0 -40 3 -103 7 -142 l6 -70 -14 80 c-8 44 -18
94 -23 110 l-8 30 -18 -38 c-17 -35 -18 -43 -5 -110 7 -40 14 -112 16 -162 l2
-90 -8 80 c-4 44 -13 101 -20 128 -17 64 -9 151 17 180 11 12 28 43 37 69 17
47 48 78 97 97 44 18 55 11 14 -8z m561 -135 c17 -13 17 -16 4 -29 -8 -8 -26
-18 -40 -21 -16 -4 -12 0 10 10 32 15 33 17 16 29 -33 25 -134 -8 -208 -66
-57 -45 -170 -119 -183 -119 -5 0 4 9 20 20 17 10 55 39 85 64 133 109 243
151 296 112z m180 -30 c48 -48 47 -94 -3 -169 -47 -72 -55 -66 -13 8 27 46 31
64 27 97 -6 42 -29 75 -62 89 -18 7 -18 8 -1 8 10 1 33 -14 52 -33z m-96 -21
c-8 -9 -10 -28 -6 -52 21 -128 20 -138 -13 -174 l-32 -34 26 39 c29 45 30 53
11 121 -7 28 -11 57 -9 65 8 27 26 60 31 55 3 -2 -1 -11 -8 -20z m-76 -31 c18
-18 21 -45 6 -60 -8 -8 -5 -20 7 -42 23 -40 9 -81 -33 -102 -17 -8 -39 -23
-48 -33 -10 -9 -22 -15 -27 -12 -5 4 -9 1 -9 -4 0 -6 -10 -11 -22 -11 -13 0
-30 -4 -37 -9 -24 -15 36 -26 67 -12 26 11 26 11 7 -4 -20 -16 -64 -16 -128 0
-21 6 -31 3 -41 -11 -12 -15 -10 -20 13 -39 14 -12 35 -27 46 -33 17 -9 17
-11 3 -12 -9 0 -31 12 -48 26 -37 32 -52 23 -52 -31 l0 -37 -25 43 c-38 64
-51 76 -88 83 -50 10 -51 24 -2 16 57 -8 65 -15 87 -64 14 -30 19 -35 19 -19
1 12 9 35 18 51 15 26 16 36 5 64 -18 50 -15 64 18 101 16 19 34 45 39 58 9
22 10 22 10 3 1 -11 -13 -42 -30 -67 -28 -43 -30 -50 -19 -82 11 -32 33 -51
27 -22 -1 8 16 12 58 13 85 1 105 14 105 69 0 44 -12 60 -24 30 -9 -25 -45
-18 -52 9 -3 14 -3 29 0 35 3 5 1 12 -4 14 -6 3 -5 4 2 3 7 -1 14 -15 16 -30
4 -28 27 -32 27 -4 0 15 -79 88 -94 88 -4 0 -36 -24 -70 -54 -48 -42 -75 -57
-114 -66 -62 -13 -74 -7 -13 9 27 7 64 28 98 57 29 26 77 57 106 70 63 29 81
31 32 4 -20 -11 -28 -19 -18 -20 9 0 30 -12 47 -26 17 -14 35 -23 40 -20 5 3
14 -1 21 -10 10 -11 15 -12 21 -3 4 6 6 -16 4 -50 -3 -65 3 -73 35 -41 24 24
26 63 5 80 -17 14 -20 46 -5 55 16 10 12 43 -7 54 -10 6 -13 11 -6 11 6 0 19
-7 27 -16z m-54 -19 c6 -8 10 -21 8 -30 -2 -12 -8 -8 -21 14 -18 31 -9 43 13
16z m-117 -117 c-6 -34 -20 -58 -33 -58 -4 0 2 20 13 45 12 25 22 45 24 45 1
0 0 -15 -4 -32z m-476 -40 c-3 -8 -6 -5 -6 6 -1 11 2 17 5 13 3 -3 4 -12 1
-19z m10 -50 c-3 -8 -6 -5 -6 6 -1 11 2 17 5 13 3 -3 4 -12 1 -19z m729 -145
l-26 -22 28 -17 c37 -21 55 -50 61 -99 6 -37 8 -40 41 -43 57 -6 70 -25 70
-106 l0 -71 65 -80 c35 -43 63 -81 61 -82 -2 -2 -21 1 -42 6 -36 8 -37 9 -9
10 29 2 29 2 10 17 -11 9 -56 34 -100 56 -44 22 -93 49 -108 60 -16 11 -29 19
-31 17 -2 -2 0 -32 3 -66 4 -35 4 -63 0 -63 -3 0 -10 35 -15 78 l-9 78 102
-53 c57 -30 103 -52 103 -50 0 2 -11 18 -25 37 -21 28 -25 45 -25 101 0 74 -3
78 -65 94 -33 8 -39 14 -37 33 3 19 -2 22 -30 23 -30 2 -31 2 -5 6 37 6 36 36
-3 75 -25 24 -37 29 -65 26 -27 -3 -32 -1 -23 9 6 7 17 13 25 13 8 0 25 11 38
25 20 19 25 36 27 77 l2 53 3 -60 c4 -54 2 -62 -21 -82z m-643 67 c3 -11 1
-18 -4 -14 -5 3 -9 12 -9 20 0 20 7 17 13 -6z m548 -101 c-6 -20 -22 -52 -35
-71 -22 -33 -23 -38 -10 -65 8 -16 28 -46 45 -66 24 -29 34 -35 47 -28 9 5 40
12 67 15 l50 6 -35 -14 c-19 -8 -48 -15 -64 -15 -29 -1 -29 -1 -10 -23 14 -16
10 -15 -18 6 l-38 28 0 -41 c0 -28 -4 -40 -11 -35 -6 3 -9 24 -7 48 3 28 -1
49 -13 67 -10 14 -21 37 -24 52 -7 26 -8 26 -36 12 -38 -20 -122 -20 -244 -1
-131 22 -198 54 -236 114 -16 25 -29 51 -29 56 1 6 10 -6 20 -26 22 -40 68
-80 115 -98 41 -16 217 -41 288 -41 45 -1 66 5 92 23 41 28 72 80 81 138 l7
43 -24 -16 c-13 -10 -39 -17 -59 -17 -20 0 -47 -8 -60 -17 l-25 -16 24 26 c18
20 35 27 60 27 20 1 47 7 61 15 24 13 25 13 28 -18 2 -18 -1 -48 -7 -68z
m-743 18 c-65 -56 -69 -119 -8 -132 34 -7 55 -33 65 -83 14 -69 82 -63 137 14
17 24 34 42 36 39 11 -10 -54 -90 -86 -106 -61 -31 -98 -5 -117 84 -4 21 -13
29 -36 34 -16 3 -36 15 -44 27 -27 37 -18 67 31 113 26 24 50 43 53 43 3 -1
-11 -15 -31 -33z m722 4 c-20 -39 -61 -62 -106 -60 -36 2 -47 -2 -64 -24 -18
-23 -29 -27 -70 -27 -27 0 -51 3 -54 8 -2 4 14 6 36 4 35 -4 44 0 77 32 32 31
40 35 73 29 38 -6 83 14 101 44 12 20 19 15 7 -6z m-388 -41 c31 0 50 -5 59
-17 13 -16 12 -17 -2 -5 -11 8 -31 10 -55 6 -31 -4 -45 -1 -67 16 -15 12 -27
26 -27 32 0 7 10 2 23 -10 17 -16 36 -22 69 -22z m453 -106 c-22 -8 -49 -13
-60 -11 -15 2 -12 6 15 14 19 6 46 11 60 11 20 1 16 -3 -15 -14z m-228 -86
c-3 -8 -6 -5 -6 6 -1 11 2 17 5 13 3 -3 4 -12 1 -19z m412 8 c-12 -10 -59 -15
-59 -6 0 5 14 10 32 10 17 0 29 -2 27 -4z m-320 -153 c39 -26 71 -30 71 -8 0
8 5 15 10 15 6 0 10 -7 10 -16 0 -9 19 -36 42 -60 35 -37 48 -44 68 -39 19 4
21 3 10 -5 -25 -16 -39 -12 -83 29 -23 21 -57 41 -76 45 -64 12 -141 95 -141
152 0 10 12 -7 28 -37 15 -31 41 -63 61 -76z m278 -89 c-3 -3 -12 -4 -19 -1
-8 3 -5 6 6 6 11 1 17 -2 13 -5z m60 -10 c-3 -3 -12 -4 -19 -1 -8 3 -5 6 6 6
11 1 17 -2 13 -5z m60 -10 c-3 -3 -12 -4 -19 -1 -8 3 -5 6 6 6 11 1 17 -2 13
-5z m921 -810 c42 -42 68 -71 57 -63 -33 22 -154 139 -144 139 5 0 44 -34 87
-76z m219 -80 c-3 -3 -12 -4 -19 -1 -8 3 -5 6 6 6 11 1 17 -2 13 -5z"/>
<path d="M2864 4277 c-12 -7 -57 -46 -100 -87 -44 -41 -65 -66 -48 -55 28 18
182 155 173 155 -2 -1 -14 -6 -25 -13z"/>
<path d="M2733 2976 c-55 -18 -107 -51 -127 -81 -21 -32 -31 -31 -46 5 -13 31
-37 56 -46 48 -2 -3 8 -29 23 -59 l28 -54 3 -249 c3 -245 3 -249 -19 -272
l-22 -23 29 -11 c72 -26 92 -37 140 -76 l51 -41 27 44 c16 24 55 66 87 95 76
66 109 130 109 212 0 67 -23 128 -66 179 -14 17 -30 42 -35 55 -9 23 -10 23
-32 8 -57 -42 -127 -86 -137 -86 -13 0 -13 197 0 237 11 31 34 47 83 58 15 3
25 10 22 15 -8 13 -20 12 -72 -4z m77 -355 c55 -79 69 -191 32 -273 -30 -69
-40 -73 -98 -35 l-49 32 -3 144 c-3 150 1 167 41 173 30 5 52 -7 77 -41z"/>
<path d="M3795 2981 c-55 -14 -105 -43 -135 -79 -16 -20 -31 -34 -33 -31 -2 2
-14 21 -26 42 -12 20 -27 37 -32 37 -14 0 -11 -8 19 -69 27 -56 27 -57 30
-295 3 -230 3 -240 -18 -268 -20 -27 -20 -29 -3 -35 63 -21 107 -47 148 -84
37 -35 48 -40 56 -28 5 8 9 18 9 22 0 4 40 50 90 101 96 99 120 144 120 220 0
59 -25 127 -64 172 -18 22 -36 49 -40 62 -8 24 -21 29 -32 11 -8 -14 -124 -89
-136 -89 -6 0 -8 52 -6 125 3 138 9 152 69 164 18 3 34 12 37 19 4 13 -7 14
-53 3z m45 -341 c41 -44 63 -98 68 -165 5 -72 -10 -135 -41 -170 l-22 -25 -52
31 -53 31 0 153 0 153 28 10 c40 15 41 15 72 -18z"/>
<path d="M4161 2964 c-25 -32 -26 -43 -7 -89 18 -43 35 -44 81 -4 64 57 56
119 -15 119 -30 0 -43 -6 -59 -26z"/>
<path d="M4111 2716 c-28 -41 -47 -77 -42 -80 5 -3 14 1 21 9 28 34 37 16 43
-92 4 -58 7 -145 7 -192 0 -67 4 -93 19 -117 21 -34 85 -79 100 -70 12 8 71
112 71 126 0 6 -7 6 -19 -1 -51 -32 -65 18 -59 215 3 121 4 128 27 145 l24 19
-23 12 c-13 7 -45 33 -71 57 l-47 44 -51 -75z"/>
<path d="M3240 2754 c-8 -14 -49 -57 -91 -95 -97 -87 -123 -137 -123 -229 1
-80 24 -136 84 -205 23 -27 46 -51 50 -53 3 -1 37 21 74 49 37 28 69 49 70 47
2 -1 11 -18 20 -35 10 -19 33 -41 56 -52 l39 -19 42 69 c23 39 39 73 35 76 -3
4 -12 1 -18 -5 -17 -17 -45 -15 -52 4 -3 9 -6 78 -6 153 0 122 2 141 19 163
l20 25 -52 21 c-29 12 -74 42 -102 67 -27 25 -50 45 -50 45 -1 0 -8 -12 -15
-26z m7 -119 c25 -19 50 -35 54 -35 10 0 12 -180 3 -256 -8 -66 -31 -83 -77
-57 -88 50 -116 258 -49 361 8 12 16 22 19 22 2 0 25 -16 50 -35z"/>
<path d="M4609 2765 c-152 -55 -213 -138 -213 -290 -1 -131 30 -195 138 -282
35 -29 38 -29 85 5 21 15 57 36 79 46 23 11 42 22 42 25 0 4 -27 7 -59 6 -45
0 -67 5 -88 21 -32 23 -85 120 -81 147 2 14 35 31 121 64 64 25 117 51 116 57
-1 22 -85 210 -94 212 -6 1 -26 -3 -46 -11z m-10 -127 c18 -46 35 -88 37 -94
4 -8 -105 -54 -128 -54 -11 0 -10 119 2 159 9 32 36 71 49 71 3 0 21 -37 40
-82z"/>
<path d="M4566 1243 c-3 -27 -18 -110 -32 -186 l-26 -138 -19 30 c-20 33 -49
40 -69 16 -8 -9 -21 -13 -37 -9 -15 4 -30 0 -42 -10 -16 -15 -22 -15 -40 -4
-17 10 -25 10 -41 0 -25 -15 -19 -28 -64 151 -35 141 -40 156 -53 143 -10 -10
-10 -266 -1 -326 l7 -46 -92 4 c-122 5 -211 -15 -355 -80 -94 -42 -130 -53
-184 -56 l-68 -4 -1 118 c-1 187 -38 298 -53 162 -8 -67 -42 -233 -51 -248 -3
-5 -17 3 -31 17 -19 19 -28 22 -39 13 -8 -6 -16 -7 -19 -2 -3 6 -31 9 -61 8
l-55 -2 -10 41 c-28 115 -64 225 -71 218 -14 -15 -41 -246 -35 -295 7 -47 6
-48 -21 -48 -46 1 -104 34 -182 105 -76 69 -176 125 -221 125 -18 -1 -10 -6
25 -18 66 -24 116 -56 199 -132 75 -67 133 -99 182 -100 23 0 33 -5 37 -21 8
-28 -12 -33 -84 -20 -73 12 -121 39 -220 122 -75 63 -127 92 -186 103 -47 8
-41 -1 10 -14 50 -14 97 -43 165 -103 l50 -44 -67 -1 c-36 -1 -86 -8 -111 -16
l-45 -15 50 7 c95 13 180 6 242 -22 63 -29 149 -46 188 -38 26 4 31 -3 16 -26
-5 -9 -18 -11 -37 -7 -22 5 -25 4 -14 -4 8 -6 23 -11 33 -11 9 0 17 -4 17 -10
0 -16 -31 -11 -95 15 -33 14 -76 27 -95 30 -20 3 4 -9 55 -29 114 -44 96 -46
-32 -4 -118 38 -238 45 -288 15 l-30 -17 30 7 c17 5 68 8 115 7 67 0 105 -7
181 -32 53 -18 108 -32 123 -32 l26 0 0 -140 c0 -80 4 -140 9 -140 9 0 18 27
57 168 14 51 21 62 35 59 10 -3 27 2 39 10 16 11 25 12 33 4 15 -15 62 -14 76
3 7 8 20 12 31 9 13 -3 30 5 51 26 17 18 34 29 37 26 12 -12 14 -120 2 -215
-13 -119 -3 -146 28 -73 38 89 54 173 50 254 l-5 76 46 -21 c38 -17 64 -21
151 -20 117 1 201 23 405 109 103 43 104 43 111 22 3 -12 13 -30 22 -39 12
-14 13 -34 8 -105 -4 -49 -10 -106 -13 -127 -5 -30 -3 -37 6 -31 18 10 67 117
82 176 11 43 16 49 40 49 14 0 32 6 38 14 8 10 23 13 46 9 27 -4 35 -1 45 17
7 14 17 19 27 16 9 -4 27 1 41 10 l25 17 -7 -114 c-4 -63 -13 -145 -20 -184
-8 -38 -12 -72 -9 -75 7 -8 41 41 73 106 34 71 60 182 60 260 0 30 4 54 8 54
11 0 53 -46 82 -90 63 -95 125 -133 181 -110 16 7 29 17 29 22 0 5 -9 4 -19
-2 -54 -28 -100 0 -176 105 -25 35 -59 72 -75 82 -20 11 -30 25 -30 41 0 23 0
23 31 5 17 -10 46 -34 63 -53 90 -100 112 -118 150 -126 40 -7 66 2 74 25 3
10 0 10 -16 2 -45 -24 -72 -14 -138 55 -35 36 -64 70 -64 75 0 14 40 11 99 -7
66 -19 86 -14 35 11 -25 11 -64 19 -109 19 -38 1 -79 7 -90 13 -19 11 -18 13
17 27 47 20 111 20 163 0 70 -27 81 -26 30 3 -68 37 -168 40 -215 5 -17 -13
-33 -22 -34 -20 -22 25 -29 69 -31 187 -2 131 -26 281 -44 281 -5 0 -11 -21
-15 -47z m38 -248 c0 -183 -15 -259 -60 -294 -15 -12 -31 -21 -35 -21 -5 0 -8
35 -7 78 l1 77 7 -65 c5 -49 7 -55 8 -25 1 22 9 71 17 109 17 82 12 98 -9 30
-23 -75 -19 -40 13 117 16 79 33 164 37 189 l7 45 11 -40 c5 -22 10 -112 10
-200z m-377 -220 l-2 -120 -23 70 c-38 117 -60 297 -52 440 1 17 18 -34 41
-120 36 -139 39 -159 36 -270z m-799 150 c-1 -56 -1 -57 -8 -20 -6 34 -7 28
-8 -35 -1 -52 1 -70 8 -60 16 24 12 -88 -5 -153 -17 -65 -52 -124 -78 -133
-34 -11 -35 -24 34 261 16 66 32 147 36 180 8 74 22 48 21 -40z m-329 -34 c26
-106 27 -105 -8 -173 -33 -64 -38 -61 -48 33 -6 65 16 259 27 238 4 -8 17 -52
29 -98z m1380 37 c18 -50 3 -233 -21 -263 -10 -13 -25 -22 -32 -19 -11 4 -14
34 -11 149 2 79 6 149 10 155 13 22 43 10 54 -22z m-79 -112 c-1 -138 -23
-206 -62 -191 -13 5 -15 26 -11 143 4 99 9 144 21 161 l15 25 18 -23 c16 -19
19 -40 19 -115z m-94 88 c4 -14 4 -85 2 -157 -4 -109 -10 -146 -32 -212 -15
-44 -31 -83 -35 -87 -4 -4 -3 32 2 80 4 48 5 140 2 204 -7 135 4 198 35 198
13 0 22 -9 26 -26z m-158 -66 c7 -7 12 -20 12 -31 0 -15 -5 -18 -27 -13 -97
18 -202 17 -287 -3 -49 -12 -95 -26 -104 -32 -15 -9 -15 -10 1 -5 52 16 138
35 182 40 40 5 34 2 -30 -14 -44 -11 -135 -47 -202 -80 -115 -55 -125 -58
-160 -48 -50 13 -93 36 -93 48 0 6 21 10 48 10 63 0 109 14 225 66 53 25 123
51 155 58 73 18 263 21 280 4z m495 -128 c0 -56 -7 -122 -17 -160 -18 -69 -63
-176 -71 -168 -3 2 0 31 5 64 6 32 14 109 19 169 5 61 17 139 27 174 16 58 18
62 27 40 6 -13 10 -67 10 -119z m-1463 48 c0 -34 -114 -428 -124 -428 -12 0 1
197 19 282 19 94 60 168 92 168 7 0 13 -10 13 -22z m76 -3 c8 -31 -47 -212
-74 -246 -20 -24 -59 -21 -49 5 3 7 20 67 38 132 18 66 38 122 44 126 19 14
35 8 41 -17z m65 -16 c10 -25 9 -45 -6 -115 -24 -114 -67 -166 -95 -115 -7 15
-5 31 11 68 24 56 50 163 43 175 -8 13 5 28 20 22 8 -3 20 -19 27 -35z m734
32 c-21 -20 -173 -90 -239 -110 -41 -13 -94 -21 -135 -21 l-66 1 75 39 c66 34
186 80 245 93 39 9 129 7 120 -2z m50 -1 c-7 -12 7 -13 21 -2 6 4 -6 -8 -25
-27 -38 -36 -27 -33 27 8 28 20 35 22 43 10 5 -8 9 -19 9 -25 0 -14 -133 -72
-280 -121 -178 -60 -351 -56 -423 11 -41 38 -32 47 20 24 66 -29 196 -35 288
-14 67 16 219 83 280 124 33 23 50 27 40 12z m-645 -175 c16 -56 8 -190 -15
-263 -9 -30 -18 -52 -21 -50 -2 3 1 42 7 89 11 84 6 167 -11 200 -11 19 6 82
20 74 4 -2 13 -25 20 -50z"/>
<path d="M4573 1085 c-6 -44 -15 -89 -19 -100 -5 -15 -4 -17 4 -10 15 14 34
116 30 158 -2 21 -7 5 -15 -48z"/>
<path d="M4537 793 c-4 -3 -6 -22 -6 -42 l1 -36 8 40 c8 42 8 49 -3 38z"/>
<path d="M4161 1000 c-1 -32 25 -183 40 -228 20 -62 20 -25 0 64 -11 49 -25
112 -30 139 -5 28 -9 39 -10 25z"/>
<path d="M4368 760 c-4 -30 -9 -71 -12 -90 -5 -30 -4 -29 9 10 9 25 14 65 13
90 l-3 45 -7 -55z"/>
<path d="M4272 898 c-7 -7 -11 -35 -10 -62 l1 -51 4 45 c3 24 9 50 15 58 14
16 5 25 -10 10z"/>
<path d="M3680 735 c-14 -8 -20 -14 -15 -14 6 0 21 6 35 14 14 8 21 14 15 14
-5 0 -21 -6 -35 -14z"/>
<path d="M4604 573 c-3 -16 -12 -50 -20 -77 -8 -27 -12 -51 -10 -53 5 -5 32
77 41 125 8 39 -2 43 -11 5z"/>
<path d="M3144 752 c-24 -15 -61 -112 -43 -112 5 0 9 7 9 15 0 20 29 78 44 87
6 4 8 9 5 12 -2 3 -9 2 -15 -2z"/>
<path d="M3191 586 c-14 -28 -27 -55 -30 -61 -2 -5 3 -4 12 3 16 14 53 99 46
106 -2 2 -15 -19 -28 -48z"/>
<path d="M3300 677 l5 -52 3 44 c2 24 0 47 -5 52 -4 4 -6 -15 -3 -44z"/>
<path d="M4060 740 c-14 -11 -20 -20 -15 -20 6 0 21 9 35 20 14 11 21 20 15
20 -5 0 -21 -9 -35 -20z"/>
<path d="M2695 858 c11 -6 55 -44 97 -85 43 -40 82 -73 88 -73 12 0 -120 127
-159 152 -14 10 -30 18 -36 18 -5 -1 -1 -6 10 -12z"/>
<path d="M400 4640 c-14 -85 -9 -321 10 -382 12 -42 55 -98 75 -98 19 0 26 57
15 123 -12 74 -69 363 -79 402 -7 27 -9 21 -21 -45z m38 -165 l1 -20 -9 20
c-5 11 -8 31 -8 45 l0 25 8 -25 c4 -14 8 -34 8 -45z m50 -230 l-1 -60 -8 75
c-4 41 -12 88 -18 103 -6 16 -11 34 -10 40 3 38 38 -108 37 -158z m-21 -27
c-2 -13 -4 -5 -4 17 -1 22 1 32 4 23 2 -10 2 -28 0 -40z"/>
<path d="M807 4527 c-33 -134 -37 -166 -37 -272 1 -111 2 -118 15 -93 27 49
55 191 67 339 16 210 2 218 -45 26z m30 -74 c-3 -10 -5 -4 -5 12 0 17 2 24 5
18 2 -7 2 -21 0 -30z m-10 -60 c-3 -10 -5 -4 -5 12 0 17 2 24 5 18 2 -7 2 -21
0 -30z m-17 -96 c-7 -29 -17 -59 -22 -67 -7 -12 -8 -10 -4 5 2 11 10 47 17 79
7 33 15 54 17 47 2 -6 -2 -35 -8 -64z"/>
<path d="M1574 4475 c-13 -43 -9 -260 5 -326 15 -72 63 -149 92 -149 17 0 20
5 16 23 -3 12 -11 49 -17 82 -6 33 -21 93 -32 133 -11 40 -28 117 -38 170 -15
86 -18 93 -26 67z m13 -167 c-2 -18 -4 -6 -4 27 0 33 2 48 4 33 2 -15 2 -42 0
-60z"/>
<path d="M1912 4415 c-40 -150 -41 -160 -21 -186 10 -13 24 -39 30 -57 8 -25
14 -31 23 -22 14 14 14 246 -1 305 l-9 40 -22 -80z"/>
<path d="M525 4420 c-19 -36 -20 -59 -10 -165 8 -83 27 -135 48 -135 28 0 33
20 25 93 -5 39 -6 100 -2 135 5 52 3 67 -12 83 -23 26 -31 24 -49 -11z"/>
<path d="M609 4403 c-7 -17 -9 -76 -7 -146 4 -103 7 -120 25 -139 12 -11 28
-18 36 -15 23 9 15 282 -9 308 -23 26 -33 24 -45 -8z m36 -256 c5 -20 5 -21
-6 -3 -6 10 -13 48 -15 85 l-3 66 9 -63 c5 -34 12 -73 15 -85z"/>
<path d="M700 4404 c-9 -10 -11 -57 -8 -166 4 -132 8 -163 31 -227 14 -41 30
-78 34 -82 12 -12 5 399 -7 442 -11 41 -33 55 -50 33z m37 -106 c-2 -13 -4 -3
-4 22 0 25 2 35 4 23 2 -13 2 -33 0 -45z"/>
<path d="M895 4331 c-46 -5 -50 -8 -53 -34 -3 -28 -3 -28 40 -23 74 9 195 15
158 7 -35 -7 -34 -7 19 -14 70 -10 195 -56 289 -108 73 -39 79 -40 117 -29 59
18 95 39 95 55 0 10 -9 12 -34 8 -50 -8 -125 12 -234 61 -147 67 -276 92 -397
77z m228 -58 c-7 -2 -19 -2 -25 0 -7 3 -2 5 12 5 14 0 19 -2 13 -5z m50 -10
c-7 -2 -19 -2 -25 0 -7 3 -2 5 12 5 14 0 19 -2 13 -5z"/>
<path d="M360 4279 c-15 -60 -8 -175 15 -263 16 -59 65 -169 73 -162 2 3 -1
36 -7 75 -6 38 -11 110 -11 159 0 68 -5 100 -20 133 -11 24 -20 56 -20 71 0
47 -18 40 -30 -13z m37 -261 c-3 -7 -5 -2 -5 12 0 14 2 19 5 13 2 -7 2 -19 0
-25z m22 -63 c0 -5 -4 -3 -9 5 -5 8 -9 22 -9 30 0 16 17 -16 18 -35z"/>
<path d="M930 4263 c0 -14 151 -90 230 -116 88 -29 220 -46 220 -27 0 16 -176
96 -262 119 -86 23 -188 36 -188 24z"/>
<path d="M895 4224 c42 -39 32 -37 -23 5 -28 20 -35 22 -43 10 -19 -30 0 -44
130 -96 248 -99 383 -119 503 -73 50 19 88 49 88 71 0 4 -24 -2 -52 -14 -84
-33 -237 -29 -346 8 -46 15 -121 50 -168 77 -94 54 -114 60 -69 22 31 -27 21
-24 -30 8 -24 16 -22 12 10 -18z"/>
<path d="M1686 4238 c-9 -12 -16 -36 -16 -53 0 -36 25 -142 41 -178 15 -33 46
-44 66 -24 13 13 12 23 -12 88 -15 41 -30 98 -34 128 -7 61 -21 73 -45 39z
m11 -100 c-2 -13 -4 -5 -4 17 -1 22 1 32 4 23 2 -10 2 -28 0 -40z"/>
<path d="M1747 4254 c-20 -20 21 -183 63 -251 19 -32 43 -42 54 -24 3 4 -12
68 -33 142 -31 109 -42 135 -57 137 -11 2 -23 0 -27 -4z m84 -230 c7 -8 9 -17
7 -20 -7 -7 -44 54 -52 86 -4 15 1 10 13 -14 11 -21 26 -44 32 -52z"/>
<path d="M1816 4251 c-5 -8 105 -408 123 -446 16 -32 13 126 -4 237 -8 53 -21
114 -30 135 -26 62 -73 101 -89 74z m71 -68 c7 -18 13 -38 12 -45 0 -7 -8 6
-17 28 -9 23 -24 50 -32 60 -14 18 -14 18 4 4 11 -8 25 -29 33 -47z"/>
<path d="M1545 4095 c-28 -61 -24 -181 8 -275 l26 -75 -7 75 c-9 99 -6 189 7
223 8 21 7 36 -3 60 l-14 32 -17 -40z"/>
<path d="M3101 4314 c12 -40 37 -84 49 -84 6 0 -43 106 -55 118 -2 2 1 -13 6
-34z"/>
<path d="M4575 4530 c16 -72 38 -150 42 -146 7 7 -16 107 -33 141 -12 26 -13
27 -9 5z"/>
<path d="M4261 4153 c-1 -46 6 -73 21 -73 5 0 6 6 1 13 -4 6 -10 32 -14 57
l-6 45 -2 -42z"/>
<path d="M3170 4441 c11 -16 27 -45 36 -63 l15 -33 -6 30 c-8 36 -43 95 -56
95 -6 0 -1 -13 11 -29z"/>
<path d="M3302 4323 c-1 -23 -5 -50 -8 -60 -5 -17 -5 -17 6 0 6 9 9 36 7 60
l-4 42 -1 -42z"/>
<path d="M4025 4273 c6 -6 28 -20 50 -33 29 -18 36 -19 26 -7 -18 22 -3 22 23
0 l21 -18 -20 23 c-11 13 -29 29 -40 35 -18 9 -19 9 -6 -6 17 -21 9 -21 -32
-1 -18 9 -27 12 -22 7z"/>
<path d="M4355 4310 c4 -19 10 -57 15 -85 9 -50 9 -50 6 16 -2 37 -9 75 -15
85 -10 16 -10 13 -6 -16z"/>
<path d="M3654 4266 c11 -9 24 -16 30 -16 12 0 7 5 -24 19 -24 11 -24 11 -6
-3z"/>
<path d="M4201 4218 c-15 -48 -41 -196 -40 -227 1 -15 5 -4 10 24 5 28 19 90
30 138 21 86 21 130 0 65z"/>
<path d="M4530 4237 c0 -20 4 -38 9 -42 6 -3 7 10 4 32 -8 50 -13 55 -13 10z"/>
<path d="M4555 4001 c4 -13 13 -58 20 -100 9 -51 13 -64 14 -40 1 49 -17 141
-30 154 -8 7 -9 3 -4 -14z"/>
<path d="M648 3384 c-49 -37 -52 -52 -17 -86 17 -16 19 -15 44 28 14 24 25 56
23 69 l-3 24 -47 -35z"/>
<path d="M396 2997 c-13 -51 -6 -94 24 -135 17 -23 34 -42 39 -42 5 0 23 -13
40 -29 l31 -29 0 52 c0 41 -5 57 -21 72 -12 10 -40 45 -64 76 -39 51 -43 55
-49 35z"/>
<path d="M2183 2700 c-23 -9 -23 -12 -23 -178 l0 -169 60 -37 c51 -31 63 -36
76 -25 31 25 47 73 46 136 -1 67 -16 105 -69 170 -18 23 -40 58 -48 78 -9 19
-16 35 -18 34 -1 0 -12 -4 -24 -9z"/>
<path d="M1550 1163 c-29 -89 -31 -210 -5 -272 l19 -44 13 37 c7 21 11 42 8
46 -18 29 -24 121 -14 202 6 49 8 92 6 95 -3 3 -15 -26 -27 -64z"/>
<path d="M1921 1133 c-82 -277 -112 -396 -102 -406 8 -8 18 -5 34 12 20 22 20
23 3 17 -19 -6 -19 -6 -3 12 9 10 23 36 31 58 8 21 15 31 15 21 1 -10 -6 -32
-15 -48 -8 -17 -13 -33 -10 -36 8 -9 36 54 51 119 16 65 33 318 22 318 -3 0
-15 -30 -26 -67z"/>
<path d="M413 1073 c-17 -38 -37 -93 -44 -123 -14 -62 -18 -221 -6 -263 9 -34
27 -26 27 11 0 15 9 47 20 71 15 33 20 65 20 133 0 49 5 121 11 159 6 39 9 73
6 75 -2 2 -18 -26 -34 -63z m-9 -102 c-4 -17 -9 -30 -11 -27 -3 2 -2 19 2 36
4 17 9 30 11 27 2 -2 1 -18 -2 -36z"/>
<path d="M752 1053 c-39 -72 -55 -152 -59 -301 -5 -149 0 -182 28 -182 26 0
34 53 39 270 3 124 4 227 3 228 -1 2 -6 -5 -11 -15z m-15 -405 c-2 -13 -4 -3
-4 22 0 25 2 35 4 23 2 -13 2 -33 0 -45z"/>
<path d="M1721 995 c-20 -27 -51 -142 -51 -193 0 -35 31 -79 48 -68 7 4 12 24
12 44 0 20 13 75 29 122 21 60 26 90 20 103 -14 24 -34 21 -58 -8z m-24 -187
c-2 -13 -4 -3 -4 22 0 25 2 35 4 23 2 -13 2 -33 0 -45z"/>
<path d="M1814 995 c-24 -37 -74 -185 -74 -221 0 -39 20 -59 42 -41 18 14 92
263 83 278 -11 17 -34 9 -51 -16z m9 -42 c-11 -15 -25 -41 -32 -58 l-11 -30 6
30 c5 30 45 97 52 90 2 -2 -5 -16 -15 -32z"/>
<path d="M1634 963 c-45 -48 -68 -151 -68 -303 -1 -166 14 -209 32 -93 7 43
23 119 36 168 24 89 56 233 56 248 0 16 -33 5 -56 -20z m-47 -330 c-2 -16 -4
-3 -4 27 0 30 2 43 4 28 2 -16 2 -40 0 -55z"/>
<path d="M1151 914 c-47 -14 -140 -48 -208 -76 -124 -51 -141 -66 -111 -96 9
-9 19 -6 42 16 l31 27 -24 -28 -25 -27 30 4 c16 2 56 19 89 37 201 114 367
143 523 90 57 -20 65 -13 28 24 -59 59 -230 72 -375 29z m-206 -140 c-26 -20
-55 -36 -55 -30 0 5 63 46 70 46 3 -1 -4 -8 -15 -16z"/>
<path d="M624 869 c-26 -28 -34 -263 -10 -294 15 -20 15 -20 36 1 19 19 21 34
24 162 3 117 1 142 -11 146 -20 8 -17 9 -39 -15z m21 -29 c-3 -10 -10 -48 -15
-82 l-9 -63 4 65 c4 62 12 100 22 100 2 0 2 -9 -2 -20z"/>
<path d="M541 844 c-14 -18 -21 -42 -21 -73 -1 -25 -5 -66 -9 -90 -9 -47 2
-107 25 -130 12 -13 16 -12 34 4 19 17 21 27 15 85 -3 36 -2 96 3 133 7 55 6
72 -5 83 -19 18 -18 18 -42 -12z"/>
<path d="M1175 846 c-78 -25 -230 -99 -241 -117 -12 -20 122 0 218 31 48 16
122 47 165 69 l78 40 -75 0 c-51 0 -97 -7 -145 -23z"/>
<path d="M1306 810 c-151 -75 -230 -95 -367 -95 l-106 0 7 -25 c8 -32 65 -43
170 -35 98 7 153 22 281 78 121 53 190 71 237 62 49 -9 42 21 -10 44 -80 33
-85 33 -212 -29z m-16 -50 c-8 -5 -19 -10 -25 -10 -5 0 -3 5 5 10 8 5 20 10
25 10 6 0 3 -5 -5 -10z m-73 -26 c-3 -3 -12 -4 -19 -1 -8 3 -5 6 6 6 11 1 17
-2 13 -5z m-40 -10 c-3 -3 -12 -4 -19 -1 -8 3 -5 6 6 6 11 1 17 -2 13 -5z
m-44 -11 c-7 -2 -19 -2 -25 0 -7 3 -2 5 12 5 14 0 19 -2 13 -5z m-60 -10 c-7
-2 -21 -2 -30 0 -10 3 -4 5 12 5 17 0 24 -2 18 -5z"/>
<path d="M771 730 c0 -112 3 -140 38 -275 32 -124 40 -145 46 -122 19 71 -31
423 -71 497 -12 22 -13 10 -13 -100z m43 -70 c4 -34 1 -28 -14 25 -11 39 -19
75 -19 80 1 21 27 -63 33 -105z m13 -87 c-3 -10 -5 -4 -5 12 0 17 2 24 5 18 2
-7 2 -21 0 -30z m10 -65 c-3 -7 -5 -2 -5 12 0 14 2 19 5 13 2 -7 2 -19 0 -25z"/>
<path d="M1917 808 c-10 -26 -24 -51 -31 -57 -15 -12 -3 -84 31 -200 l17 -56
8 35 c17 73 21 253 6 289 l-14 35 -17 -46z"/>
<path d="M446 800 c-14 -17 -31 -50 -38 -73 -21 -71 -15 -467 7 -445 3 3 75
363 89 449 8 45 -3 99 -19 99 -7 0 -25 -14 -39 -30z m29 -158 c-10 -35 -19
-61 -21 -59 -3 2 2 30 11 63 8 32 16 79 17 104 l1 45 4 -45 c3 -25 -3 -73 -12
-108z m-8 91 c-3 -10 -5 -2 -5 17 0 19 2 27 5 18 2 -10 2 -26 0 -35z m-36
-259 c-6 -28 -9 -32 -10 -14 -1 30 11 79 16 64 2 -6 -1 -28 -6 -50z"/>
</g>
</svg>
